<svg width="50" height="50" viewBox="0 0 50 50" fill="none" xmlns="http://www.w3.org/2000/svg">
<path d="M41.4062 7.8125H8.59375C7.14382 7.81405 5.75373 8.39072 4.72847 9.41597C3.70322 10.4412 3.12655 11.8313 3.125 13.2812V36.7188C3.12655 38.1687 3.70322 39.5588 4.72847 40.584C5.75373 41.6093 7.14382 42.1859 8.59375 42.1875H41.4062C42.8562 42.1859 44.2463 41.6093 45.2715 40.584C46.2968 39.5588 46.8734 38.1687 46.875 36.7188V13.2812C46.8734 11.8313 46.2968 10.4412 45.2715 9.41597C44.2463 8.39072 42.8562 7.81405 41.4062 7.8125V7.8125ZM40.0215 16.8584L25.959 27.7959C25.6848 28.0091 25.3473 28.1248 25 28.1248C24.6527 28.1248 24.3152 28.0091 24.041 27.7959L9.97852 16.8584C9.81329 16.7336 9.67452 16.5773 9.57025 16.3984C9.46598 16.2195 9.3983 16.0217 9.37114 15.8165C9.34398 15.6112 9.35789 15.4026 9.41205 15.2028C9.4662 15.0029 9.55954 14.8159 9.68662 14.6524C9.8137 14.489 9.97201 14.3524 10.1523 14.2507C10.3326 14.1489 10.5314 14.084 10.737 14.0598C10.9426 14.0355 11.151 14.0523 11.35 14.1093C11.5491 14.1663 11.7348 14.2622 11.8965 14.3916L25 24.583L38.1035 14.3916C38.4312 14.1442 38.8431 14.0356 39.2501 14.0895C39.6571 14.1434 40.0266 14.3553 40.2787 14.6794C40.5307 15.0036 40.645 15.4139 40.5969 15.8216C40.5487 16.2294 40.342 16.6018 40.0215 16.8584Z" fill="#F9F9F9"/>
</svg>
