<svg width="24" height="24" viewBox="0 0 24 24" fill="none" xmlns="http://www.w3.org/2000/svg">
<path d="M12.0022 6.87339C9.16453 6.87339 6.87563 9.1623 6.87563 12C6.87563 14.8377 9.16453 17.1266 12.0022 17.1266C14.8399 17.1266 17.1288 14.8377 17.1288 12C17.1288 9.1623 14.8399 6.87339 12.0022 6.87339ZM12.0022 15.333C10.1684 15.333 8.66927 13.8383 8.66927 12C8.66927 10.1617 10.164 8.66704 12.0022 8.66704C13.8405 8.66704 15.3352 10.1617 15.3352 12C15.3352 13.8383 13.836 15.333 12.0022 15.333V15.333ZM18.5343 6.66369C18.5343 7.3285 17.9989 7.85945 17.3385 7.85945C16.6737 7.85945 16.1428 7.32404 16.1428 6.66369C16.1428 6.00334 16.6782 5.46793 17.3385 5.46793C17.9989 5.46793 18.5343 6.00334 18.5343 6.66369ZM21.9297 7.8773C21.8539 6.27551 21.488 4.85666 20.3146 3.68767C19.1456 2.51868 17.7267 2.15281 16.1249 2.0725C14.4741 1.9788 9.52593 1.9788 7.87507 2.0725C6.27775 2.14835 4.8589 2.51422 3.68544 3.68321C2.51199 4.8522 2.15059 6.27105 2.07027 7.87284C1.97658 9.5237 1.97658 14.4718 2.07027 16.1227C2.14612 17.7245 2.51199 19.1433 3.68544 20.3123C4.8589 21.4813 6.27329 21.8472 7.87507 21.9275C9.52593 22.0212 14.4741 22.0212 16.1249 21.9275C17.7267 21.8516 19.1456 21.4858 20.3146 20.3123C21.4835 19.1433 21.8494 17.7245 21.9297 16.1227C22.0234 14.4718 22.0234 9.52816 21.9297 7.8773V7.8773ZM19.797 17.894C19.449 18.7685 18.7752 19.4423 17.8963 19.7948C16.58 20.3168 13.4568 20.1963 12.0022 20.1963C10.5477 20.1963 7.41997 20.3123 6.1082 19.7948C5.23369 19.4467 4.55996 18.773 4.20747 17.894C3.68544 16.5778 3.80591 13.4545 3.80591 12C3.80591 10.5455 3.68991 7.41773 4.20747 6.10596C4.55549 5.23145 5.22922 4.55772 6.1082 4.20524C7.42443 3.68321 10.5477 3.80368 12.0022 3.80368C13.4568 3.80368 16.5845 3.68767 17.8963 4.20524C18.7708 4.55326 19.4445 5.22699 19.797 6.10596C20.319 7.42219 20.1985 10.5455 20.1985 12C20.1985 13.4545 20.319 16.5823 19.797 17.894Z" fill="#3B82F6"/>
</svg>
