<svg width="35" height="50" viewBox="0 0 35 50" fill="none" xmlns="http://www.w3.org/2000/svg">
<path d="M5.83333 37.5H29.1667C29.9688 37.5 30.625 36.5625 30.625 35.4167C30.625 34.2708 29.9688 33.3333 29.1667 33.3333H5.83333C5.03125 33.3333 4.375 34.2708 4.375 35.4167C4.375 36.5625 5.03125 37.5 5.83333 37.5ZM5.83333 27.0833H29.1667C29.9688 27.0833 30.625 26.1458 30.625 25C30.625 23.8542 29.9688 22.9167 29.1667 22.9167H5.83333C5.03125 22.9167 4.375 23.8542 4.375 25C4.375 26.1458 5.03125 27.0833 5.83333 27.0833ZM4.375 14.5833C4.375 15.7292 5.03125 16.6667 5.83333 16.6667H29.1667C29.9688 16.6667 30.625 15.7292 30.625 14.5833C30.625 13.4375 29.9688 12.5 29.1667 12.5H5.83333C5.03125 12.5 4.375 13.4375 4.375 14.5833Z" fill="#3B82F6"/>
</svg>
