<svg width="42" height="42" viewBox="0 0 42 42" fill="none" xmlns="http://www.w3.org/2000/svg">
<path d="M30.5834 25.1667C30.1667 24.9583 27.4584 23.7083 27.0417 23.5C26.625 23.2917 26.2084 23.2917 25.7917 23.7083C25.375 24.125 24.5417 25.375 24.125 25.7917C23.9167 26.2083 23.5 26.2083 23.0834 26C21.625 25.375 20.1667 24.5417 18.9167 23.5C17.875 22.4583 16.8334 21.2083 16 19.9583C15.7917 19.5417 16 19.125 16.2084 18.9167C16.4167 18.7083 16.625 18.2917 17.0417 18.0833C17.25 17.875 17.4584 17.4583 17.4584 17.25C17.6667 17.0417 17.6667 16.625 17.4584 16.4167C17.25 16.2083 16.2084 13.7083 15.7917 12.6667C15.5834 11.2083 15.1667 11.2083 14.75 11.2083C14.5417 11.2083 14.125 11.2083 13.7084 11.2083C13.2917 11.2083 12.6667 11.625 12.4584 11.8333C11.2084 13.0833 10.5834 14.5417 10.5834 16.2083C10.7917 18.0833 11.4167 19.9583 12.6667 21.625C14.9584 24.9583 17.875 27.6667 21.4167 29.3333C22.4584 29.75 23.2917 30.1667 24.3334 30.375C25.375 30.7917 26.4167 30.7917 27.6667 30.5833C29.125 30.375 30.375 29.3333 31.2084 28.0833C31.625 27.25 31.625 26.4167 31.4167 25.5833C31.4167 25.5833 31 25.375 30.5834 25.1667ZM35.7917 6.20833C27.6667 -1.91667 14.5417 -1.91667 6.41669 6.20833C-0.249979 12.875 -1.49998 23.0833 3.08335 31.2083L0.166687 41.8333L11.2084 38.9167C14.3334 40.5833 17.6667 41.4167 21 41.4167C32.4584 41.4167 41.625 32.25 41.625 20.7917C41.8334 15.375 39.5417 10.1667 35.7917 6.20833ZM30.1667 35.375C27.4584 37.0417 24.3334 38.0833 21 38.0833C17.875 38.0833 14.9584 37.25 12.25 35.7917L11.625 35.375L5.16669 37.0417L6.83335 30.7917L6.41669 30.1667C1.41669 21.8333 3.91669 11.4167 12.0417 6.20833C20.1667 0.999995 30.5834 3.70833 35.5834 11.625C40.5834 19.75 38.2917 30.375 30.1667 35.375Z" fill="#F9F9F9"/>
</svg>
