<svg width="50" height="50" viewBox="0 0 50 50" fill="none" xmlns="http://www.w3.org/2000/svg">
<path d="M39.5927 10.2213C35.6957 6.31509 30.506 4.16666 24.9907 4.16666C13.6068 4.16666 4.3434 13.43 4.3434 24.814C4.3434 28.4505 5.29206 32.0033 7.09637 35.1376L4.16669 45.8333L15.1135 42.9594C18.1269 44.6056 21.5216 45.4706 24.9814 45.4706H24.9907C36.3653 45.4706 45.8334 36.2072 45.8334 24.8233C45.8334 19.308 43.4896 14.1276 39.5927 10.2213ZM24.9907 41.9922C21.9029 41.9922 18.8802 41.1644 16.2482 39.6019L15.625 39.2299L9.1332 40.9319L10.8631 34.5982L10.4539 33.9472C8.73328 31.2128 7.83112 28.0599 7.83112 24.814C7.83112 15.3553 15.532 7.65438 25 7.65438C29.5852 7.65438 33.8914 9.44009 37.128 12.686C40.3646 15.9319 42.3549 20.2381 42.3456 24.8233C42.3456 34.2913 34.4494 41.9922 24.9907 41.9922ZM34.4029 29.1388C33.8914 28.8783 31.3523 27.6321 30.878 27.4646C30.4037 27.2879 30.0595 27.2042 29.7154 27.7251C29.3713 28.2459 28.3854 29.3992 28.0785 29.7526C27.7809 30.0967 27.474 30.1432 26.9624 29.8828C23.9305 28.3668 21.9401 27.1763 19.9405 23.7444C19.4104 22.833 20.4706 22.8981 21.4565 20.9263C21.6239 20.5822 21.5402 20.2846 21.41 20.0242C21.2798 19.7638 20.2474 17.2247 19.8196 16.1923C19.4011 15.1879 18.9732 15.3274 18.657 15.3088C18.3594 15.2902 18.0153 15.2902 17.6712 15.2902C17.327 15.2902 16.769 15.4204 16.2947 15.9319C15.8203 16.4527 14.4903 17.699 14.4903 20.2381C14.4903 22.7771 16.3412 25.2325 16.5923 25.5766C16.8527 25.9207 20.2288 31.1291 25.4092 33.3705C28.6831 34.7842 29.9665 34.9051 31.6034 34.6633C32.5986 34.5145 34.654 33.417 35.0819 32.208C35.5097 30.9989 35.5097 29.9665 35.3795 29.7526C35.2586 29.5201 34.9145 29.3899 34.4029 29.1388Z" fill="#F9F9F9"/>
</svg>
